/vscmnt/brussel_pixiu_data/_data_brussel/112/vsc11236/PredSimResults/SUBJ07mtu3D/weighted-expIG/worker_04.mot
version=1
nRows=5
nColumns=50
inDegrees=yes
endheader
                time	         pelvis_tilt	         pelvis_list	     pelvis_rotation	           pelvis_tx	           pelvis_ty	           pelvis_tz	       hip_flexion_r	     hip_adduction_r	      hip_rotation_r	        knee_angle_r	       ankle_angle_r	         mtp_angle_r	       hip_flexion_l	     hip_adduction_l	      hip_rotation_l	        knee_angle_l	       ankle_angle_l	         mtp_angle_l	    lumbar_extension	      lumbar_bending	     lumbar_rotation	 ercspn_r/activation	 intobl_r/activation	 extobl_r/activation	    abd_r/activation	    add_r/activation	hamstrings_r/activation	bifemsh_r/activation	glut_max_r/activation	iliopsoas_r/activation	rect_fem_r/activation	  vasti_r/activation	gastroc_r/activation	 soleus_r/activation	tib_ant_r/activation	 ercspn_l/activation	 intobl_l/activation	 extobl_l/activation	    abd_l/activation	    add_l/activation	hamstrings_l/activation	bifemsh_l/activation	glut_max_l/activation	iliopsoas_l/activation	rect_fem_l/activation	  vasti_l/activation	gastroc_l/activation	 soleus_l/activation	tib_ant_l/activation	
          0.00000000	         -6.83689422	         -3.63492073	         10.00129802	          0.00000000	          0.84278348	         -0.01475412	         32.03527269	         -0.79443550	         -8.08906285	         -5.22523506	          7.20239945	          0.25157460	        -12.78297348	         -4.23049596	          5.43447431	         -7.47115299	          7.87747078	         29.47010232	         -6.25090340	          2.07794610	         -3.58372582	          0.08682014	          0.15051868	          0.02632462	          0.01000026	          0.21817495	          0.06444435	          0.19071910	          0.07014594	          0.09071146	          0.01000329	          0.01000049	          0.02830725	          0.01016028	          0.26991064	          0.08290836	          0.01000031	          0.01000106	          0.03366759	          0.09097070	          0.02844026	          0.13857921	          0.02916094	          0.45216607	          0.01000207	          0.01000119	          0.27989662	          0.26552578	          0.01886281	
          0.01136206	         -6.90141638	         -3.49696605	          9.89190323	          0.01660696	          0.84095719	         -0.01441998	         32.12187249	         -0.63347024	         -7.32070533	         -7.22966242	          6.90990662	          0.23221055	        -12.75423428	         -4.09694998	          4.90096289	         -9.55644683	          7.13351986	         31.23544345	         -6.04652182	          2.55815371	         -3.63408634	          0.07299703	          0.14687311	          0.02213333	          0.01565640	          0.20083919	          0.06682674	          0.16035411	          0.12908859	          0.07626868	          0.01000079	          0.01000027	          0.02380049	          0.01191795	          0.30420521	          0.11119382	          0.01000025	          0.01189088	          0.02830714	          0.12290247	          0.02914121	          0.11651531	          0.02451804	          0.43807780	          0.01000085	          0.01000062	          0.23533235	          0.24707041	          0.01585954	
          0.02272412	         -6.94991350	         -3.36107151	          9.71780408	          0.03342614	          0.83940500	         -0.01402493	         31.98294511	         -0.47842423	         -6.60233481	         -8.88416401	          6.52327687	          0.22573529	        -12.49632728	         -3.94491493	          4.30582936	        -12.10868854	          6.24061353	         32.91314129	         -5.83375844	          3.05314830	         -3.65412288	          0.08594083	          0.12348863	          0.01860937	          0.09996693	          0.21156012	          0.06428938	          0.13482373	          0.13568300	          0.06412544	          0.01000055	          0.01000011	          0.02001114	          0.01002048	          0.33679620	          0.13967777	          0.01000020	          0.01000044	          0.02380017	          0.11193115	          0.02450276	          0.09796439	          0.02061436	          0.41946526	          0.01000121	          0.01000060	          0.19786344	          0.21110371	          0.01333444	
          0.03408618	         -6.98347906	         -3.22106201	          9.48562611	          0.05021287	          0.83827606	         -0.01353352	         31.71266328	         -0.30364533	         -5.97740468	        -10.31510217	          6.10594080	          0.20906156	        -11.95385941	         -3.77720395	          3.66214805	        -15.17595545	          5.17042101	         34.33189259	         -5.63795914	          3.55011408	         -3.64763294	          0.08787126	          0.10382722	          0.01564650	          0.13686503	          0.21507493	          0.05405517	          0.11335785	          0.16668713	          0.05391560	          0.01000088	          0.01000204	          0.01682520	          0.01000628	          0.35775040	          0.17095709	          0.01000018	          0.01000065	          0.02001079	          0.11757279	          0.02060277	          0.08236725	          0.01733221	          0.38217732	          0.01000058	          0.01000018	          0.16636021	          0.17749247	          0.01121141	
          0.04544824	         -7.00175268	         -3.08586174	          9.19993049	          0.06678349	          0.83767262	         -0.01295128	         31.39335070	         -0.10775836	         -5.43147725	        -11.67999636	          5.82304442	          0.19686832	        -11.10285165	         -3.61275701	          2.96809436	        -18.75890702	          3.95125777	         35.18803575	         -5.47320844	          4.05641684	         -3.61319737	          0.08179326	          0.08729623	          0.01315538	          0.15803232	          0.19780316	          0.04937227	          0.09530971	          0.17298467	          0.04533135	          0.01000069	          0.06605460	          0.01414654	          0.01000118	          0.36922840	          0.19996165	          0.01000023	          0.01000054	          0.01682474	          0.12945327	          0.01732353	          0.06925380	          0.01457264	          0.32132893	          0.01000043	          0.01000012	          0.13987283	          0.14923266	          0.01000009	
